# xmcd
#
# Track frame offsets:
#	150
#	11110
#	24990
#	37392
#	53430
#	68292
#	79632
#	96577
#	110272
#	122602
#	126315
#	136072
#	138950
#
# Disc length: 1990 seconds
# Revision: 5
# Processed by: cddbd v1.5.2PL0 Copyright (c) Steve Scherf et al.
# Submitted via: dBpowerAMP V12.0
#
DISCID=a607c40d
DTITLE=Bill Monroe and The Blue Grass Boys - Live - Volume 1
DYEAR=2001
DGENRE=Bluegrass
TTITLE0=I'm on My Way Back to the Old Home (Introduction)
TTITLE1=Take Me Home
TTITLE2=Sugar Loaf Mountain
TTITLE3=Come Hither to Go Yonder
TTITLE4=Cryin' Holy Unto the Lord
TTITLE5=Nothern White Clouds
TTITLE6=Old, Old House
TTITLE7=Tombstone Junction
TTITLE8=Take Courage Un' Tomorrow
TTITLE9=Theme
TTITLE10=Dusty Miller
TTITLE11=Happy Birthday
TTITLE12=Roll in My Sweet Baby's Arms
EXTD=
EXTT0=
EXTT1=
EXTT2=
EXTT3=
EXTT4=
EXTT5=
EXTT6=
EXTT7=
EXTT8=
EXTT9=
EXTT10=
EXTT11=
EXTT12=
PLAYORDER=
